# xmcd CD database file
#
# Track frame offsets:
#	150
#	34722
#	69027
#	92527
#	157697
#
# Disc length: 2502 seconds
#
# Revision: 3
# Processed by: cddbd v1.5.1PL2 Copyright (c) Steve Scherf et al.
# Submitted via: CDex 1.60beta1-cs1
#
DISCID=2709c405
DTITLE=Art Farmer And Donald Byrd - 2 Trumpets
DYEAR=1956
DGENRE=Jazz
TTITLE0=The Third
TTITLE1=Contour
TTITLE2=When Your Lover Has Gone
TTITLE3=Dig
TTITLE4='Round Midnight
EXTD=YEAR: 1956
EXTT0=
EXTT1=
EXTT2=
EXTT3=
EXTT4=
PLAYORDER=
